<svg width="19" height="18" viewBox="0 0 19 18" xmlns="http://www.w3.org/2000/svg">
<path d="M17.375 1.68744H12.875V0.562439C12.875 0.410095 12.8193 0.278259 12.708 0.166931C12.5967 0.055603 12.4648 -6.10352e-05 12.3125 -6.10352e-05C12.1602 -6.10352e-05 12.0283 0.055603 11.917 0.166931C11.8057 0.278259 11.75 0.410095 11.75 0.562439V1.68744H7.25V0.562439C7.25 0.410095 7.19434 0.278259 7.08301 0.166931C6.97168 0.055603 6.83984 -6.10352e-05 6.6875 -6.10352e-05C6.53516 -6.10352e-05 6.40332 0.055603 6.29199 0.166931C6.18066 0.278259 6.125 0.410095 6.125 0.562439V1.68744H1.625C1.30859 1.68744 1.04199 1.79584 0.825195 2.01263C0.608398 2.22943 0.5 2.49603 0.5 2.81244V16.8749C0.5 17.0742 0.549805 17.2617 0.649414 17.4374C0.749023 17.6132 0.886719 17.7509 1.0625 17.8505C1.23828 17.9501 1.42578 17.9999 1.625 17.9999H17.375C17.6914 17.9999 17.958 17.8886 18.1748 17.666C18.3916 17.4433 18.5 17.1796 18.5 16.8749V2.81244C18.5 2.6015 18.4502 2.41107 18.3506 2.24115C18.251 2.07123 18.1133 1.93646 17.9375 1.83685C17.7617 1.73724 17.5742 1.68744 17.375 1.68744ZM17.375 16.8749H1.625V2.81244H6.125V3.37494C6.125 3.52728 6.18066 3.65912 6.29199 3.77045C6.40332 3.88177 6.53516 3.93744 6.6875 3.93744C6.83984 3.93744 6.97168 3.88177 7.08301 3.77045C7.19434 3.65912 7.25 3.52728 7.25 3.37494V2.81244H11.75V3.37494C11.75 3.52728 11.8057 3.65912 11.917 3.77045C12.0283 3.88177 12.1602 3.93744 12.3125 3.93744C12.4648 3.93744 12.5967 3.88177 12.708 3.77045C12.8193 3.65912 12.875 3.52728 12.875 3.37494V2.81244H17.375V16.8749ZM13.4375 8.99994H14.5625C14.7148 8.99994 14.8467 8.94427 14.958 8.83295C15.0693 8.72162 15.125 8.58978 15.125 8.43744V7.31244C15.125 7.1601 15.0693 7.02826 14.958 6.91693C14.8467 6.8056 14.7148 6.74994 14.5625 6.74994H13.4375C13.2852 6.74994 13.1533 6.8056 13.042 6.91693C12.9307 7.02826 12.875 7.1601 12.875 7.31244V8.43744C12.875 8.58978 12.9307 8.72162 13.042 8.83295C13.1533 8.94427 13.2852 8.99994 13.4375 8.99994ZM13.4375 13.4999H14.5625C14.7148 13.4999 14.8467 13.4443 14.958 13.3329C15.0693 13.2216 15.125 13.0898 15.125 12.9374V11.8124C15.125 11.6601 15.0693 11.5283 14.958 11.4169C14.8467 11.3056 14.7148 11.2499 14.5625 11.2499H13.4375C13.2852 11.2499 13.1533 11.3056 13.042 11.4169C12.9307 11.5283 12.875 11.6601 12.875 11.8124V12.9374C12.875 13.0898 12.9307 13.2216 13.042 13.3329C13.1533 13.4443 13.2852 13.4999 13.4375 13.4999ZM10.0625 11.2499H8.9375C8.78516 11.2499 8.65332 11.3056 8.54199 11.4169C8.43066 11.5283 8.375 11.6601 8.375 11.8124V12.9374C8.375 12.996 8.38379 13.0546 8.40137 13.1132C8.41895 13.1718 8.44531 13.2245 8.48047 13.2714C8.51562 13.3183 8.55664 13.3593 8.60352 13.3945C8.65039 13.4296 8.70312 13.456 8.76172 13.4736C8.82031 13.4911 8.87891 13.4999 8.9375 13.4999H10.0625C10.2148 13.4999 10.3467 13.4443 10.458 13.3329C10.5693 13.2216 10.625 13.0898 10.625 12.9374V11.8124C10.625 11.7656 10.6191 11.7158 10.6074 11.663C10.5957 11.6103 10.5781 11.5634 10.5547 11.5224C10.5312 11.4814 10.502 11.4433 10.4668 11.4081C10.4316 11.373 10.3936 11.3437 10.3525 11.3203C10.3115 11.2968 10.2646 11.2792 10.2119 11.2675C10.1592 11.2558 10.1094 11.2499 10.0625 11.2499ZM10.0625 6.74994H8.9375C8.78516 6.74994 8.65332 6.8056 8.54199 6.91693C8.43066 7.02826 8.375 7.1601 8.375 7.31244V8.43744C8.375 8.58978 8.43066 8.72162 8.54199 8.83295C8.65332 8.94427 8.78516 8.99994 8.9375 8.99994H10.0625C10.2148 8.99994 10.3467 8.94427 10.458 8.83295C10.5693 8.72162 10.625 8.58978 10.625 8.43744V7.31244C10.625 7.23041 10.6104 7.15717 10.5811 7.09271C10.5518 7.02826 10.5107 6.96967 10.458 6.91693C10.4053 6.8642 10.3467 6.82318 10.2822 6.79388C10.2178 6.76459 10.1445 6.74994 10.0625 6.74994ZM5.5625 6.74994H4.4375C4.28516 6.74994 4.15332 6.8056 4.04199 6.91693C3.93066 7.02826 3.875 7.1601 3.875 7.31244V8.43744C3.875 8.58978 3.93066 8.72162 4.04199 8.83295C4.15332 8.94427 4.28516 8.99994 4.4375 8.99994H5.5625C5.71484 8.99994 5.84668 8.94427 5.95801 8.83295C6.06934 8.72162 6.125 8.58978 6.125 8.43744V7.31244C6.125 7.23041 6.11035 7.15717 6.08105 7.09271C6.05176 7.02826 6.01074 6.96967 5.95801 6.91693C5.90527 6.8642 5.84668 6.82318 5.78223 6.79388C5.71777 6.76459 5.64453 6.74994 5.5625 6.74994ZM5.5625 11.2499H4.4375C4.28516 11.2499 4.15332 11.3056 4.04199 11.4169C3.93066 11.5283 3.875 11.6601 3.875 11.8124V12.9374C3.875 13.0898 3.93066 13.2216 4.04199 13.3329C4.15332 13.4443 4.28516 13.4999 4.4375 13.4999H5.5625C5.71484 13.4999 5.84668 13.4443 5.95801 13.3329C6.06934 13.2216 6.125 13.0898 6.125 12.9374V11.8124C6.125 11.7656 6.11914 11.7158 6.10742 11.663C6.0957 11.6103 6.07812 11.5634 6.05469 11.5224C6.03125 11.4814 6.00195 11.4433 5.9668 11.4081C5.93164 11.373 5.89355 11.3437 5.85254 11.3203C5.81152 11.2968 5.76465 11.2792 5.71191 11.2675C5.65918 11.2558 5.60938 11.2499 5.5625 11.2499Z"/>
</svg>
