<svg width="17" height="16" viewBox="0 0 17 16" fill="none" xmlns="http://www.w3.org/2000/svg">
<path d="M7.05566 10.8305C8.32845 10.8305 9.47949 10.6017 10.5088 10.1441C11.5381 9.68644 12.3488 9.0339 12.9409 8.18644C13.533 7.33898 13.8236 6.37288 13.8125 5.28814C13.8125 4.92655 13.7655 4.57062 13.6714 4.22034C13.5773 3.87006 13.4445 3.53672 13.2729 3.22034C13.1014 2.90395 12.8911 2.60452 12.6421 2.32203C12.3931 2.03955 12.1164 1.77966 11.812 1.54237C11.5076 1.30508 11.1701 1.0904 10.7993 0.898305C10.4285 0.706215 10.0384 0.545198 9.62891 0.415254C9.2194 0.285311 8.78776 0.183616 8.33398 0.110169C7.88021 0.0367232 7.41536 0 6.93945 0C5.67773 0 4.51562 0.234463 3.45312 0.70339C2.39062 1.17232 1.54948 1.81356 0.929688 2.62712C0.309896 3.44068 0 4.32768 0 5.28814C0 6.24859 0.232422 7.16384 0.697266 8.0339C1.15676 8.89394 1.81632 9.54973 2.67594 10.0013C2.69438 10.0109 2.70605 10.03 2.70605 10.0508C2.70605 10.5468 2.40313 11.324 1.79729 12.3823C1.79538 12.3856 1.79774 12.3898 1.80157 12.3898C1.80526 12.3898 1.80768 12.3937 1.80615 12.3971C1.78629 12.4404 1.77637 12.4889 1.77637 12.5424C1.77637 12.5763 1.77913 12.6073 1.78467 12.6356C1.7902 12.6638 1.7985 12.6921 1.80957 12.7203C1.82064 12.7486 1.83447 12.774 1.85107 12.7966C1.86768 12.8192 1.88704 12.839 1.90918 12.8559C1.93132 12.8729 1.95622 12.887 1.98389 12.8983L2.0216 12.9137C2.05172 12.926 2.08301 12.9352 2.11499 12.9411C2.14374 12.9465 2.173 12.9489 2.20174 12.9435C2.20631 12.9427 2.21117 12.9417 2.21631 12.9407L2.24834 12.9341C2.25464 12.9329 2.26105 12.9322 2.26748 12.9322C2.2721 12.9322 2.27668 12.9319 2.28124 12.9312C2.58963 12.8852 2.94982 12.7641 3.36182 12.5678C3.77686 12.3701 4.15869 12.1525 4.50732 11.9153C4.85596 11.678 5.16032 11.4548 5.42041 11.2458C5.56956 11.1259 5.68869 11.0237 5.77779 10.9391C5.87557 10.8463 6.00967 10.7909 6.14258 10.8136C6.20898 10.8249 6.27262 10.8305 6.3335 10.8305H7.05566ZM6.07617 9.71186C5.70431 9.67932 5.33485 9.7967 5.04996 10.0379L4.94844 10.1239C4.85935 10.1993 4.77905 10.2846 4.69613 10.3667C4.59019 10.4717 4.43595 10.6065 4.2334 10.7712C4.17566 10.8181 4.11833 10.8637 4.06142 10.9079C3.84098 11.0791 3.55429 10.8562 3.61914 10.5847C3.65295 10.4432 3.6785 10.3323 3.69578 10.2519C3.71239 10.1747 3.71875 10.0959 3.71875 10.0169C3.74868 9.6197 3.54022 9.23604 3.1875 9.05085C2.49023 8.68927 1.96175 8.16102 1.60205 7.4661C1.24235 6.77119 1.0625 6.0452 1.0625 5.28814C1.0625 4.51977 1.32536 3.81356 1.85107 3.16949C2.37679 2.52542 3.09066 2.01695 3.99268 1.64407C4.89469 1.27119 5.87695 1.08475 6.93945 1.08475C8.00195 1.08475 8.97868 1.27119 9.86963 1.64407C10.7606 2.01695 11.4634 2.52542 11.978 3.16949C12.4927 3.81356 12.75 4.51977 12.75 5.28814C12.75 5.9209 12.6061 6.51695 12.3184 7.07627C12.0306 7.63559 11.6377 8.11017 11.1396 8.5C10.6416 8.88983 10.0412 9.19774 9.33838 9.42373C8.63558 9.64972 7.88574 9.76271 7.08887 9.76271C6.75684 9.77401 6.41927 9.75706 6.07617 9.71186ZM17 9.66102C17 8.44039 16.5692 7.4583 15.7076 6.71474C15.4181 6.46489 14.9929 6.6264 14.8954 6.99616C14.8376 7.21538 14.9032 7.49306 15.0749 7.64106C15.3585 7.8854 15.563 8.13782 15.6885 8.3983C15.8545 8.74294 15.9375 9.16384 15.9375 9.66102C15.9375 9.9548 15.9043 10.2288 15.8379 10.4831C15.7715 10.7373 15.6663 10.9746 15.5225 11.1949C15.3786 11.4153 15.1932 11.6186 14.9663 11.8051C14.7394 11.9915 14.471 12.1695 14.1611 12.339L13.9488 12.4439C13.7648 12.5348 13.6509 12.7252 13.6597 12.9302C13.6714 13.2039 13.6844 13.4408 13.6985 13.6411C13.7154 13.8815 13.4119 14.058 13.2314 13.8983C13.0654 13.7514 12.9326 13.6215 12.833 13.5085C12.7334 13.3955 12.6476 13.2938 12.5757 13.2034C12.5037 13.113 12.4512 13.0395 12.418 12.9831C12.3982 12.9427 12.3546 12.9198 12.3101 12.9265L11.8203 13C11.7539 13.0113 11.6543 13.0198 11.5215 13.0254C11.3887 13.0311 11.2669 13.0339 11.1562 13.0339H11.0068C9.89979 13.0339 8.94866 12.806 8.15343 12.3502C7.76855 12.1296 7.34545 11.9661 6.90182 11.9661H6.08378C6.07891 11.9661 6.07425 11.9681 6.07085 11.9715C6.06442 11.9781 6.06393 11.9884 6.06973 11.9956C6.27751 12.2506 6.51208 12.4866 6.77344 12.7034C7.03906 12.9237 7.32682 13.1215 7.63672 13.2966C7.94661 13.4718 8.27865 13.6215 8.63281 13.7458C8.98698 13.8701 9.36328 13.9633 9.76172 14.0254C10.1602 14.0876 10.5752 14.1186 11.0068 14.1186H11.3223C11.7281 14.1186 12.1269 14.2712 12.4295 14.5417C12.6435 14.733 12.9053 14.9479 13.2148 15.1864C13.7633 15.6091 14.2731 15.8736 14.7442 15.9801C14.8089 15.9947 14.8751 16 14.9414 16C15.041 16 15.124 15.9661 15.1904 15.8983C15.2568 15.8305 15.29 15.7458 15.29 15.6441C15.29 15.5989 15.279 15.5537 15.2568 15.5085C15.2015 15.4181 15.1406 15.2825 15.0742 15.1017C15.0078 14.9209 14.9469 14.7288 14.8916 14.5254C14.8363 14.322 14.7892 14.1102 14.7505 13.8898C14.7118 13.6695 14.6924 13.4746 14.6924 13.3051C14.6924 13.2842 14.7041 13.265 14.7225 13.2551C16.2408 12.4418 17 11.2438 17 9.66102Z" fill="white"/>
</svg>
