<svg width="19" height="18" viewBox="0 0 19 18" xmlns="http://www.w3.org/2000/svg">
<path d="M3.3125 5.62494C3.76953 5.62494 4.19434 5.5224 4.58692 5.31732C4.97949 5.11224 5.30469 4.83392 5.5625 4.48236L12.9805 8.26166C12.9102 8.50775 12.875 8.75384 12.875 8.99994C12.875 9.15228 12.8896 9.30756 12.9189 9.46576C12.9482 9.62396 12.9863 9.77338 13.0332 9.914L5.58008 13.5351C5.32227 13.1718 4.99414 12.8876 4.5957 12.6826C4.19727 12.4775 3.76953 12.3749 3.3125 12.3749C2.53906 12.3749 1.87695 12.6503 1.32617 13.2011C0.775391 13.7519 0.5 14.414 0.5 15.1874C0.5 15.6913 0.625977 16.1601 0.87793 16.5937C1.12988 17.0273 1.47266 17.3701 1.90625 17.622C2.33984 17.874 2.80859 17.9999 3.3125 17.9999C3.81641 17.9999 4.28516 17.874 4.71875 17.622C5.15234 17.3701 5.49512 17.0273 5.74707 16.5937C5.99902 16.1601 6.125 15.6913 6.125 15.1874L6.125 15.082L6.11621 14.9765L6.10742 14.871L6.09863 14.7656L6.07227 14.6601L6.05469 14.5546L13.6133 10.8808C13.8711 11.1738 14.1787 11.4023 14.5361 11.5663C14.8936 11.7304 15.2773 11.8124 15.6875 11.8124C16.4609 11.8124 17.123 11.537 17.6738 10.9863C18.2246 10.4355 18.5 9.77338 18.5 8.99994C18.5 8.2265 18.2246 7.56439 17.6738 7.01361C17.123 6.46283 16.4609 6.18744 15.6875 6.18744C14.7852 6.18744 14.0527 6.54486 13.4902 7.2597L6.03711 3.46283C6.06055 3.39252 6.07813 3.3222 6.08985 3.25189C6.10156 3.18158 6.11035 3.10834 6.11621 3.03216C6.12207 2.95599 6.125 2.88275 6.125 2.81244C6.125 2.30853 5.99902 1.83978 5.74707 1.40619C5.49512 0.972594 5.15235 0.629821 4.71875 0.377867C4.28516 0.125914 3.81641 -6.23188e-05 3.3125 -6.23629e-05C2.53906 -6.24305e-05 1.87695 0.275328 1.32617 0.826109C0.775392 1.37689 0.500001 2.039 0.500001 2.81244C0.500001 3.58587 0.775392 4.24798 1.32617 4.79877C1.87695 5.34955 2.53906 5.62494 3.3125 5.62494ZM3.3125 16.8749C2.84375 16.8749 2.44531 16.7109 2.11719 16.3828C1.78906 16.0546 1.625 15.6562 1.625 15.1874C1.625 14.7187 1.78906 14.3202 2.11719 13.9921C2.44531 13.664 2.84375 13.4999 3.3125 13.4999C3.78125 13.4999 4.17969 13.664 4.50781 13.9921C4.83594 14.3203 5 14.7187 5 15.1874C5 15.6562 4.83594 16.0546 4.50781 16.3828C4.17969 16.7109 3.78125 16.8749 3.3125 16.8749ZM15.6875 7.31244C16.1563 7.31244 16.5547 7.4765 16.8828 7.80463C17.2109 8.13275 17.375 8.53119 17.375 8.99994C17.375 9.46869 17.2109 9.86713 16.8828 10.1953C16.5547 10.5234 16.1563 10.6874 15.6875 10.6874C15.2188 10.6874 14.8203 10.5234 14.4922 10.1953C14.1641 9.86713 14 9.46869 14 8.99994C14 8.53119 14.1641 8.13275 14.4922 7.80463C14.8203 7.4765 15.2188 7.31244 15.6875 7.31244ZM3.3125 1.12494C3.78125 1.12494 4.17969 1.289 4.50781 1.61713C4.83594 1.94525 5 2.34369 5 2.81244C5 3.28119 4.83594 3.67963 4.50781 4.00775C4.17969 4.33588 3.78125 4.49994 3.3125 4.49994C2.84375 4.49994 2.44531 4.33588 2.11719 4.00775C1.78906 3.67963 1.625 3.28119 1.625 2.81244C1.625 2.34369 1.78906 1.94525 2.11719 1.61713C2.44531 1.289 2.84375 1.12494 3.3125 1.12494Z"/>
</svg>
