<svg width="11" height="10" viewBox="0 0 11 10" fill="none" xmlns="http://www.w3.org/2000/svg">
<path d="M9.875 0.9375H7.375V0.3125C7.375 0.227865 7.34408 0.154622 7.28223 0.0927734C7.22038 0.0309245 7.14714 0 7.0625 0C6.97786 0 6.90462 0.0309245 6.84277 0.0927734C6.78092 0.154622 6.75 0.227865 6.75 0.3125V0.9375H4.25V0.3125C4.25 0.227865 4.21908 0.154622 4.15723 0.0927734C4.09538 0.0309245 4.02214 0 3.9375 0C3.85286 0 3.77962 0.0309245 3.71777 0.0927734C3.65592 0.154622 3.625 0.227865 3.625 0.3125V0.9375H1.125C0.949219 0.9375 0.801107 0.997721 0.680664 1.11816C0.560221 1.23861 0.5 1.38672 0.5 1.5625V9.375C0.5 9.48568 0.527669 9.58984 0.583008 9.6875C0.638346 9.78516 0.714844 9.86165 0.8125 9.91699C0.910156 9.97233 1.01432 10 1.125 10H9.875C10.0508 10 10.1989 9.93815 10.3193 9.81445C10.4398 9.69075 10.5 9.54427 10.5 9.375V1.5625C10.5 1.44531 10.4723 1.33952 10.417 1.24512C10.3617 1.15072 10.2852 1.07585 10.1875 1.02051C10.0898 0.965169 9.98568 0.9375 9.875 0.9375ZM9.875 9.375H1.125V1.5625H3.625V1.875C3.625 1.95964 3.65592 2.03288 3.71777 2.09473C3.77962 2.15658 3.85286 2.1875 3.9375 2.1875C4.02214 2.1875 4.09538 2.15658 4.15723 2.09473C4.21908 2.03288 4.25 1.95964 4.25 1.875V1.5625H6.75V1.875C6.75 1.95964 6.78092 2.03288 6.84277 2.09473C6.90462 2.15658 6.97786 2.1875 7.0625 2.1875C7.14714 2.1875 7.22038 2.15658 7.28223 2.09473C7.34408 2.03288 7.375 1.95964 7.375 1.875V1.5625H9.875V9.375ZM7.6875 5H8.3125C8.39714 5 8.47038 4.96908 8.53223 4.90723C8.59408 4.84538 8.625 4.77214 8.625 4.6875V4.0625C8.625 3.97786 8.59408 3.90462 8.53223 3.84277C8.47038 3.78092 8.39714 3.75 8.3125 3.75H7.6875C7.60286 3.75 7.52962 3.78092 7.46777 3.84277C7.40592 3.90462 7.375 3.97786 7.375 4.0625V4.6875C7.375 4.77214 7.40592 4.84538 7.46777 4.90723C7.52962 4.96908 7.60286 5 7.6875 5ZM7.6875 7.5H8.3125C8.39714 7.5 8.47038 7.46908 8.53223 7.40723C8.59408 7.34538 8.625 7.27214 8.625 7.1875V6.5625C8.625 6.47786 8.59408 6.40462 8.53223 6.34277C8.47038 6.28092 8.39714 6.25 8.3125 6.25H7.6875C7.60286 6.25 7.52962 6.28092 7.46777 6.34277C7.40592 6.40462 7.375 6.47786 7.375 6.5625V7.1875C7.375 7.27214 7.40592 7.34538 7.46777 7.40723C7.52962 7.46908 7.60286 7.5 7.6875 7.5ZM5.8125 6.25H5.1875C5.10286 6.25 5.02962 6.28092 4.96777 6.34277C4.90592 6.40462 4.875 6.47786 4.875 6.5625V7.1875C4.875 7.22005 4.87988 7.2526 4.88965 7.28516C4.89941 7.31771 4.91406 7.34701 4.93359 7.37305C4.95312 7.39909 4.97591 7.42188 5.00195 7.44141C5.02799 7.46094 5.05729 7.47559 5.08984 7.48535C5.1224 7.49512 5.15495 7.5 5.1875 7.5H5.8125C5.89714 7.5 5.97038 7.46908 6.03223 7.40723C6.09408 7.34538 6.125 7.27214 6.125 7.1875V6.5625C6.125 6.53646 6.12174 6.50879 6.11523 6.47949C6.10872 6.4502 6.09896 6.42415 6.08594 6.40137C6.07292 6.37858 6.05664 6.35742 6.03711 6.33789C6.01758 6.31836 5.99642 6.30208 5.97363 6.28906C5.95085 6.27604 5.9248 6.26628 5.89551 6.25977C5.86621 6.25326 5.83854 6.25 5.8125 6.25ZM5.8125 3.75H5.1875C5.10286 3.75 5.02962 3.78092 4.96777 3.84277C4.90592 3.90462 4.875 3.97786 4.875 4.0625V4.6875C4.875 4.77214 4.90592 4.84538 4.96777 4.90723C5.02962 4.96908 5.10286 5 5.1875 5H5.8125C5.89714 5 5.97038 4.96908 6.03223 4.90723C6.09408 4.84538 6.125 4.77214 6.125 4.6875V4.0625C6.125 4.01693 6.11686 3.97624 6.10059 3.94043C6.08431 3.90462 6.06152 3.87207 6.03223 3.84277C6.00293 3.81348 5.97038 3.79069 5.93457 3.77441C5.89876 3.75814 5.85807 3.75 5.8125 3.75ZM3.3125 3.75H2.6875C2.60286 3.75 2.52962 3.78092 2.46777 3.84277C2.40592 3.90462 2.375 3.97786 2.375 4.0625V4.6875C2.375 4.77214 2.40592 4.84538 2.46777 4.90723C2.52962 4.96908 2.60286 5 2.6875 5H3.3125C3.39714 5 3.47038 4.96908 3.53223 4.90723C3.59408 4.84538 3.625 4.77214 3.625 4.6875V4.0625C3.625 4.01693 3.61686 3.97624 3.60059 3.94043C3.58431 3.90462 3.56152 3.87207 3.53223 3.84277C3.50293 3.81348 3.47038 3.79069 3.43457 3.77441C3.39876 3.75814 3.35807 3.75 3.3125 3.75ZM3.3125 6.25H2.6875C2.60286 6.25 2.52962 6.28092 2.46777 6.34277C2.40592 6.40462 2.375 6.47786 2.375 6.5625V7.1875C2.375 7.27214 2.40592 7.34538 2.46777 7.40723C2.52962 7.46908 2.60286 7.5 2.6875 7.5H3.3125C3.39714 7.5 3.47038 7.46908 3.53223 7.40723C3.59408 7.34538 3.625 7.27214 3.625 7.1875V6.5625C3.625 6.53646 3.62174 6.50879 3.61523 6.47949C3.60872 6.4502 3.59896 6.42415 3.58594 6.40137C3.57292 6.37858 3.55664 6.35742 3.53711 6.33789C3.51758 6.31836 3.49642 6.30208 3.47363 6.28906C3.45085 6.27604 3.4248 6.26628 3.39551 6.25977C3.36621 6.25326 3.33854 6.25 3.3125 6.25Z" fill="#6D6F71"/>
</svg>
