<svg width="19" height="14" viewBox="0 0 19 14" xmlns="http://www.w3.org/2000/svg">
<path d="M6.74023 1.11994L8.11133 2.46744L8.46289 2.79994H17.375V12.8799H1.625V1.11994H6.74023ZM7.25 -6.10352e-05H1.625C1.30859 -6.10352e-05 1.04199 0.107856 0.825195 0.323689C0.608398 0.539522 0.5 0.804939 0.5 1.11994V12.8799C0.5 13.1949 0.608398 13.4604 0.825195 13.6762C1.04199 13.892 1.30859 13.9999 1.625 13.9999H17.375C17.6914 13.9999 17.958 13.892 18.1748 13.6762C18.3916 13.4604 18.5 13.1949 18.5 12.8799V2.79994C18.5 2.48494 18.3916 2.21952 18.1748 2.00369C17.958 1.78786 17.6914 1.67994 17.375 1.67994H8.9375L7.25 -6.10352e-05Z"/>
</svg>
