<svg width="19" height="18" viewBox="0 0 19 18" xmlns="http://www.w3.org/2000/svg">
<path d="M18.3506 9.01752L9.92365 0.17572C9.87693 0.117126 9.81853 0.0731812 9.74845 0.0438843C9.67837 0.0145874 9.60246 -6.10352e-05 9.5207 -6.10352e-05C9.36886 -6.10352e-05 9.23454 0.0585327 9.11774 0.17572L0.655731 9.01752C0.585652 9.09955 0.538933 9.18744 0.515573 9.28119C0.492213 9.37494 0.495133 9.47162 0.524333 9.57123C0.553532 9.67084 0.603172 9.7558 0.67325 9.82611C0.731649 9.87299 0.795888 9.91107 0.865967 9.94037C0.936046 9.96967 1.00612 9.98138 1.0762 9.97552C1.14628 9.96967 1.21636 9.95209 1.28644 9.92279C1.35652 9.89349 1.41492 9.85541 1.46164 9.80853L2.2325 9.01752V17.4374C2.2325 17.5898 2.28506 17.7216 2.39018 17.8329C2.4953 17.9443 2.62962 17.9999 2.79313 17.9999H6.70003C6.74674 17.9999 6.79054 17.9941 6.83142 17.9824C6.8723 17.9706 6.91026 17.956 6.9453 17.9384C6.98034 17.9208 7.01538 17.8974 7.05042 17.8681C7.08546 17.8388 7.11466 17.8095 7.13802 17.7802C7.16138 17.7509 7.18182 17.7187 7.19934 17.6835C7.21686 17.6484 7.23146 17.6074 7.24314 17.5605C7.25482 17.5136 7.26065 17.4726 7.26065 17.4374L7.27817 11.8124H11.7457V17.4374C11.7457 17.5898 11.8012 17.7216 11.9121 17.8329C12.0231 17.9443 12.1545 17.9999 12.3063 17.9999H16.2307C16.3826 17.9999 16.514 17.9443 16.6249 17.8329C16.7359 17.7216 16.7914 17.5898 16.7914 17.4374V9.01752L17.5447 9.80853C17.6498 9.92572 17.7842 9.98431 17.9477 9.98431C18.0995 9.98431 18.228 9.93158 18.3331 9.82611C18.4382 9.70892 18.4937 9.57416 18.4995 9.42181C18.5054 9.26947 18.4557 9.1347 18.3506 9.01752ZM15.6701 7.99799V16.8749H12.867V11.2499C12.867 11.0976 12.8115 10.9658 12.7005 10.8544C12.5896 10.7431 12.4582 10.6874 12.3063 10.6874H6.71754C6.56571 10.6874 6.43431 10.7431 6.32335 10.8544C6.21239 10.9658 6.15691 11.0976 6.15691 11.2499L6.13939 16.8749H3.35376V7.99799C3.35376 7.95111 3.34792 7.90424 3.33624 7.85736L9.5207 1.38861L15.6876 7.85736C15.6759 7.90424 15.6701 7.95111 15.6701 7.99799Z"/>
</svg>
