<svg width="19" height="12" viewBox="0 0 19 12" xmlns="http://www.w3.org/2000/svg">
<path d="M18.4824 1.22721C18.4941 1.19312 18.5 1.15903 18.5 1.12494C18.5 1.09085 18.4941 1.05676 18.4824 1.02267L18.4473 0.920394C18.3066 0.306757 17.8555 -6.10352e-05 17.0938 -6.10352e-05H2.46875C2.11719 -6.10352e-05 1.78027 0.062439 1.45801 0.187439C1.13574 0.312439 0.892578 0.482894 0.728516 0.698803L0.640625 0.78403C0.523438 0.90903 0.482422 1.05676 0.517578 1.22721C0.505859 1.24994 0.5 1.27267 0.5 1.29539V10.0908C0.5 10.5454 0.710938 10.9772 1.13281 11.3863C1.55469 11.7954 2 11.9999 2.46875 11.9999H17.0938C17.5273 11.9999 17.8701 11.8068 18.1221 11.4204C18.374 11.034 18.5 10.5908 18.5 10.0908V1.26983L18.4824 1.22721ZM2.46875 1.09085H17.0938L9.5 6.97153L1.92383 1.10789C2.01758 1.09653 2.19922 1.09085 2.46875 1.09085ZM17.0938 10.909H2.46875C2.36328 10.909 2.24316 10.8636 2.1084 10.7727C1.97363 10.6818 1.85938 10.571 1.76562 10.4403C1.67188 10.3096 1.625 10.1931 1.625 10.0908V2.28403L9.13086 8.09653C9.23633 8.18744 9.35938 8.23289 9.5 8.23289C9.64062 8.22153 9.76367 8.17608 9.86914 8.09653L17.375 2.28403V10.159C17.375 10.659 17.2812 10.909 17.0938 10.909Z"/>
</svg>
