<svg width="10" height="12" viewBox="0 0 10 12" fill="none" xmlns="http://www.w3.org/2000/svg">
<path d="M5.04688 0C4.4375 0 3.85352 0.123047 3.29492 0.369141C2.73633 0.615234 2.25391 0.943359 1.84766 1.35352C1.44141 1.76367 1.11523 2.25 0.869141 2.8125C0.623047 3.375 0.5 3.96094 0.5 4.57031C0.5 4.91406 0.546875 5.27344 0.640625 5.64844C0.734375 6.02344 0.84375 6.37109 0.96875 6.69141C1.09375 7.01172 1.27344 7.36719 1.50781 7.75781C1.74219 8.14844 1.95117 8.47852 2.13477 8.74805C2.31836 9.01758 2.56641 9.3457 2.87891 9.73242C3.19141 10.1191 3.43359 10.4141 3.60547 10.6172C3.77734 10.8203 4.01953 11.1016 4.33203 11.4609C4.42578 11.5703 4.49609 11.6484 4.54297 11.6953C4.55859 11.7188 4.58594 11.748 4.625 11.7832C4.66406 11.8184 4.73438 11.8633 4.83594 11.918C4.9375 11.9727 5.03516 12 5.12891 12H5.16406C5.38281 12 5.57812 11.8984 5.75 11.6953C8.25 8.82031 9.5 6.44531 9.5 4.57031C9.5 3.26562 9.10156 2.18359 8.30469 1.32422C7.47656 0.441406 6.39062 0 5.04688 0ZM5.1875 11.1914C5.17969 11.207 5.16406 11.2227 5.14062 11.2383L5.09375 11.1914L4.89453 10.9688C4.59766 10.625 4.36719 10.3574 4.20312 10.166C4.03906 9.97461 3.80859 9.69531 3.51172 9.32812C3.21484 8.96094 2.98047 8.65039 2.80859 8.39648C2.63672 8.14258 2.4375 7.83398 2.21094 7.4707C1.98438 7.10742 1.81055 6.7793 1.68945 6.48633C1.56836 6.19336 1.46484 5.87695 1.37891 5.53711C1.29297 5.19727 1.25 4.875 1.25 4.57031C1.25 3.89062 1.42188 3.25586 1.76562 2.66602C2.10938 2.07617 2.57227 1.60938 3.1543 1.26562C3.73633 0.921875 4.36719 0.75 5.04688 0.75C5.66406 0.75 6.21484 0.857422 6.69922 1.07227C7.18359 1.28711 7.57227 1.57812 7.86523 1.94531C8.1582 2.3125 8.37891 2.71875 8.52734 3.16406C8.67578 3.60938 8.75 4.07812 8.75 4.57031C8.75 6.25781 7.5625 8.46484 5.1875 11.1914ZM5.01172 2.26172C4.76953 2.26172 4.5332 2.30078 4.30273 2.37891C4.07227 2.45703 3.86523 2.56445 3.68164 2.70117C3.49805 2.83789 3.33594 3 3.19531 3.1875C3.05469 3.375 2.94727 3.58203 2.87305 3.80859C2.79883 4.03516 2.76172 4.26953 2.76172 4.51172C2.76172 5.13672 2.98242 5.66797 3.42383 6.10547C3.86523 6.54297 4.39648 6.76172 5.01758 6.76172C5.63867 6.76172 6.16797 6.54297 6.60547 6.10547C7.04297 5.66797 7.26172 5.13672 7.26172 4.51172C7.26172 4.20703 7.20312 3.91602 7.08594 3.63867C6.96875 3.36133 6.80859 3.12305 6.60547 2.92383C6.40234 2.72461 6.16211 2.56445 5.88477 2.44336C5.60742 2.32227 5.31641 2.26172 5.01172 2.26172ZM5.01172 6.01172C4.59766 6.01172 4.24219 5.86328 3.94531 5.56641C3.64844 5.26953 3.5 4.91406 3.5 4.5C3.5 4.08594 3.64648 3.73242 3.93945 3.43945C4.23242 3.14648 4.58594 3 5 3C5.41406 3 5.76758 3.14648 6.06055 3.43945C6.35352 3.73242 6.5 4.08594 6.5 4.5C6.5 5.01562 6.29297 5.42578 5.87891 5.73047C5.62109 5.91797 5.33203 6.01172 5.01172 6.01172Z" fill="#6D6F71"/>
</svg>
