<svg width="19" height="18" viewBox="0 0 19 18" xmlns="http://www.w3.org/2000/svg">
<path d="M13.6133 14.6809L10.0801 12.7316C10.666 12.2634 11.0908 11.6253 11.3545 10.8175C11.6182 10.0097 11.75 9.24287 11.75 8.51701V6.14628C11.75 5.63116 11.5479 5.11604 11.1436 4.60091C10.7393 4.08579 10.209 3.6614 9.55273 3.32774C8.89648 2.99409 8.22852 2.82726 7.54883 2.82726C7.15039 2.82726 6.74023 2.89165 6.31836 3.02043C5.89648 3.14921 5.50977 3.32482 5.1582 3.54726C4.80664 3.7697 4.49023 4.01848 4.20898 4.2936C3.92773 4.56872 3.70801 4.87018 3.5498 5.19799C3.3916 5.52579 3.3125 5.84189 3.3125 6.14628V8.51701C3.3125 9.17262 3.45898 9.91604 3.75195 10.7473C4.04492 11.5785 4.49023 12.2341 5.08789 12.7141L1.44922 14.6809C1.37891 14.716 1.29102 14.7629 1.18555 14.8214C1.08008 14.8799 0.939453 14.9912 0.763672 15.1551C0.587891 15.319 0.5 15.477 0.5 15.6292V17.0516C0.5 17.3209 0.59375 17.5463 0.78125 17.7277C0.96875 17.9092 1.19141 17.9999 1.44922 17.9999H13.6133C13.8711 17.9999 14.0938 17.9092 14.2812 17.7277C14.4688 17.5463 14.5625 17.3209 14.5625 17.0516V15.6292C14.5625 15.559 14.5449 15.4858 14.5098 15.4097C14.4746 15.3336 14.4307 15.2663 14.3779 15.2077C14.3252 15.1492 14.2637 15.0907 14.1934 15.0321C14.123 14.9736 14.0527 14.9238 13.9824 14.8829C13.9121 14.8419 13.8506 14.8068 13.7979 14.7775C13.7451 14.7482 13.7012 14.7277 13.666 14.716L13.6133 14.6809ZM13.4375 16.876H1.625V15.8751C1.71875 15.8048 1.8125 15.7521 1.90625 15.717L1.97656 15.6819L5.61523 13.6975C5.67383 13.6741 5.72656 13.6419 5.77344 13.6009C5.82031 13.5599 5.86426 13.519 5.90527 13.478C5.94629 13.437 5.98438 13.3902 6.01953 13.3375C6.05469 13.2848 6.08398 13.2292 6.10742 13.1707C6.13086 13.1121 6.15137 13.0536 6.16895 12.9951C6.18652 12.9365 6.19531 12.878 6.19531 12.8195C6.23047 12.4214 6.0957 12.0936 5.79102 11.836C5.56836 11.6604 5.36621 11.4263 5.18457 11.1336C5.00293 10.8409 4.85938 10.5365 4.75391 10.2204C4.64844 9.90433 4.56934 9.59994 4.5166 9.30726C4.46387 9.01457 4.4375 8.75116 4.4375 8.51701V6.14628C4.4375 5.7014 4.76855 5.22433 5.43066 4.71506C6.09277 4.20579 6.79883 3.95116 7.54883 3.95116C8.32227 3.95116 9.02832 4.20287 9.66699 4.70628C10.3057 5.20969 10.625 5.68969 10.625 6.14628V8.51701C10.625 9.09067 10.5254 9.70238 10.3262 10.3521C10.127 11.0019 9.81055 11.4965 9.37695 11.836C9.06055 12.0936 8.91992 12.4214 8.95508 12.8195C8.99023 13.2175 9.18359 13.516 9.53516 13.7151L13.0684 15.6643L13.1738 15.717C13.2559 15.7521 13.3438 15.8048 13.4375 15.8751V16.876ZM17.5508 11.8887L13.9648 9.92189C14.2695 9.67604 14.5391 9.36872 14.7734 8.99994C15.0078 8.63116 15.1895 8.24774 15.3184 7.8497C15.4473 7.45165 15.541 7.07409 15.5996 6.71701C15.6582 6.35994 15.6875 6.02921 15.6875 5.72482V3.35409C15.6875 2.96774 15.5615 2.57262 15.3096 2.16872C15.0576 1.76482 14.7383 1.40482 14.3516 1.08872C13.9648 0.772622 13.5107 0.512134 12.9893 0.307256C12.4678 0.102378 11.9492 -6.10352e-05 11.4336 -6.10352e-05C10.7773 -6.10352e-05 10.124 0.160915 9.47363 0.482866C8.82324 0.804817 8.28711 1.21165 7.86523 1.70335C7.92383 1.70335 8.01758 1.70628 8.14648 1.71213C8.27539 1.71799 8.375 1.72384 8.44531 1.7297C8.51562 1.73555 8.60645 1.74433 8.71777 1.75604C8.8291 1.76774 8.93164 1.78238 9.02539 1.79994C9.11914 1.8175 9.20703 1.83799 9.28906 1.8614C9.92188 1.3814 10.6367 1.1414 11.4336 1.1414C12.207 1.1414 12.9219 1.39604 13.5781 1.9053C14.2344 2.41457 14.5625 2.8975 14.5625 3.35409V5.72482C14.5625 6.27506 14.4541 6.88091 14.2373 7.54238C14.0205 8.20384 13.6953 8.70433 13.2617 9.04384C12.9453 9.28969 12.8047 9.6175 12.8398 10.0273C12.8398 10.0975 12.8516 10.1677 12.875 10.238C12.8984 10.3082 12.9277 10.3755 12.9629 10.4399C12.998 10.5043 13.0361 10.5658 13.0771 10.6243C13.1182 10.6829 13.168 10.7355 13.2266 10.7824C13.2852 10.8292 13.3496 10.876 13.4199 10.9229L17.0059 12.8721C17.0293 12.8838 17.0498 12.8926 17.0674 12.8985C17.085 12.9043 17.1025 12.9131 17.1201 12.9248C17.1377 12.9365 17.1582 12.9482 17.1816 12.9599L17.252 12.9951L17.3135 13.0302L17.375 13.0653V14.0663H15.1074C15.2129 14.1482 15.3037 14.2536 15.3799 14.3824C15.4561 14.5112 15.5117 14.6282 15.5469 14.7336C15.582 14.839 15.6289 14.9912 15.6875 15.1902H17.5508C17.7266 15.1902 17.8877 15.1492 18.0342 15.0673C18.1807 14.9853 18.2949 14.8712 18.377 14.7248C18.459 14.5785 18.5 14.4175 18.5 14.2419V12.837C18.5 12.6731 18.4209 12.5121 18.2627 12.3541C18.1045 12.196 17.9434 12.076 17.7793 11.9941L17.5508 11.8887Z"/>
</svg>
