<svg width="15" height="18" viewBox="0 0 15 18" fill="none" xmlns="http://www.w3.org/2000/svg">
<path d="M14.1744 12.3268L13.8357 11.911L13.5055 11.4785L13.1837 10.9878L12.9297 10.4887L12.735 9.93982L12.6672 9.41585V5.93933C12.6672 5.19635 12.5318 4.4894 12.2608 3.81849C11.9898 3.14759 11.6257 2.57094 11.1685 2.08855C10.7113 1.60616 10.1609 1.22081 9.51736 0.932485C8.87384 0.644162 8.1908 0.5 7.46825 0.5C6.5199 0.5 5.64776 0.743966 4.85182 1.2319C4.05588 1.71983 3.43212 2.37965 2.98053 3.21135C2.52893 4.04305 2.30313 4.95238 2.30313 5.93933V9.41585C2.30313 9.61546 2.27491 9.81784 2.21846 10.023C2.16201 10.2281 2.0604 10.4499 1.91363 10.6884C1.76686 10.9268 1.65397 11.1042 1.57494 11.2206C1.49591 11.3371 1.34914 11.5339 1.13463 11.8112C0.920124 12.0884 0.795936 12.2436 0.762066 12.2769L0.45724 12.7011L0.220152 13.067L0.042337 13.433L0 13.7573L0.084674 14.1067C0.276602 14.4726 0.745131 14.6556 1.49026 14.6556H4.58933C4.58933 15.4429 4.87158 16.1138 5.43607 16.6683C6.00056 17.2228 6.6836 17.5 7.48518 17.5C8.28676 17.5 8.9698 17.2228 9.53429 16.6683C10.0988 16.1138 10.381 15.4429 10.381 14.6556H13.5478C14.293 14.6556 14.7502 14.4726 14.9196 14.1067C14.9647 14.029 14.9901 13.9486 14.9958 13.8655C15.0014 13.7823 15.0014 13.7074 14.9958 13.6409C14.9901 13.5744 14.9647 13.494 14.9196 13.3997C14.8744 13.3054 14.8349 13.225 14.801 13.1585C14.7671 13.092 14.7079 13.0033 14.6232 12.8924C14.5385 12.7815 14.468 12.6928 14.4115 12.6262C14.3551 12.5597 14.276 12.4599 14.1744 12.3268ZM7.48518 16.3855C7.24809 16.3855 7.0223 16.3384 6.80779 16.2441C6.59328 16.1499 6.407 16.0279 6.24894 15.8782C6.09088 15.7285 5.96387 15.5455 5.86791 15.3293C5.77194 15.113 5.72396 14.8885 5.72396 14.6556H9.2464C9.2464 15.1324 9.07423 15.54 8.72989 15.8782C8.38555 16.2164 7.97065 16.3855 7.48518 16.3855ZM13.5478 13.5245H1.28704C1.35478 13.4136 1.49026 13.225 1.69348 12.9589C1.70477 12.9367 1.81767 12.787 2.03218 12.5098C2.24668 12.2326 2.38781 12.0496 2.45555 11.9609C2.52329 11.8721 2.64183 11.6919 2.81118 11.4203C2.98053 11.1486 3.09625 10.9296 3.15834 10.7632C3.22043 10.5969 3.28535 10.3862 3.35309 10.1311C3.42083 9.87606 3.4547 9.63764 3.4547 9.41585V5.93933C3.4547 4.74168 3.84138 3.72423 4.61473 2.88699C5.38809 2.04974 6.33926 1.63112 7.46825 1.63112C7.79565 1.63112 8.11177 1.66993 8.4166 1.74755C8.72142 1.82518 9.00649 1.9333 9.2718 2.07192C9.53712 2.21053 9.78549 2.37965 10.0169 2.57926C10.2484 2.77886 10.4572 3.00342 10.6435 3.25294C10.8298 3.50245 10.9879 3.76582 11.1177 4.04305C11.2475 4.32029 11.3463 4.6197 11.4141 4.94129C11.4818 5.26288 11.5157 5.59556 11.5157 5.93933V9.41585C11.5157 9.75962 11.5665 10.1062 11.6681 10.4555C11.7697 10.8048 11.9249 11.1458 12.1338 11.4785C12.3426 11.8112 12.5233 12.0801 12.6757 12.2852C12.8281 12.4904 13.0285 12.7427 13.2769 13.0421L13.3531 13.1419L13.4293 13.2334L13.514 13.3332L13.5902 13.4247L13.6664 13.5245H13.5478Z" fill="white"/>
</svg>
