<svg width="19" height="18" viewBox="0 0 19 18" xmlns="http://www.w3.org/2000/svg">
<path d="M9.5088 1.12604C9.96628 1.12604 10.4384 1.21695 10.9252 1.39877C11.412 1.58058 11.8372 1.80932 12.2009 2.08498C12.5645 2.36064 12.8636 2.66563 13.0982 2.99994C13.3328 3.33425 13.4501 3.64803 13.4501 3.94129V6.75654C13.4501 7.42516 13.3094 8.17003 13.0279 8.99114C12.7463 9.81226 12.3299 10.434 11.7786 10.8562C11.6848 10.9384 11.6026 11.0351 11.5323 11.1466C11.4619 11.258 11.412 11.3753 11.3827 11.4985C11.3534 11.6216 11.3446 11.7477 11.3563 11.8768C11.415 12.2991 11.632 12.5982 12.0073 12.7741L16.9164 15.0967L16.9516 15.1055L17.022 15.1319L17.11 15.1847L17.2067 15.2639L17.2947 15.3782L17.3563 15.5542L17.3739 15.7829V16.8738L1.6261 16.8914V15.7477C1.6261 15.4545 1.78446 15.2375 2.10117 15.0967L7.04545 12.7565C7.42082 12.5806 7.6349 12.2844 7.68768 11.868C7.74047 11.4516 7.60264 11.1143 7.27419 10.8562C6.7346 10.4222 6.31525 9.79173 6.01613 8.96475C5.71701 8.13777 5.56745 7.4017 5.56745 6.75654V3.94129C5.56745 3.55419 5.761 3.1407 6.14809 2.70082C6.53519 2.26094 7.03959 1.8885 7.66129 1.58352C8.28299 1.27853 8.89883 1.12604 9.5088 1.12604ZM9.5088 -6.10352e-05C8.69941 -6.10352e-05 7.89883 0.19642 7.10704 0.589382C6.31525 0.982344 5.67302 1.48674 5.18035 2.10258C4.68768 2.71841 4.44135 3.33132 4.44135 3.94129V6.75654C4.44135 7.519 4.62023 8.39583 4.97801 9.38704C5.33578 10.3782 5.86657 11.1612 6.57038 11.736L1.6261 14.0762C1.59091 14.0879 1.54985 14.1055 1.50293 14.129C1.45601 14.1524 1.36804 14.2052 1.239 14.2873C1.10997 14.3694 0.995601 14.4516 0.895894 14.5337C0.796188 14.6158 0.705279 14.7184 0.623167 14.8416C0.541056 14.9647 0.5 15.0791 0.5 15.1847V16.8914C0.5 17.1964 0.608504 17.4574 0.825513 17.6744C1.04252 17.8914 1.30938 17.9999 1.6261 17.9999H17.3915C17.6965 17.9999 17.9575 17.8914 18.1745 17.6744C18.3915 17.4574 18.5 17.1964 18.5 16.8914V15.1847C18.5 15.0674 18.4619 14.9472 18.3856 14.824C18.3094 14.7008 18.2155 14.5952 18.1041 14.5073C17.9927 14.4193 17.8842 14.3401 17.7786 14.2697C17.673 14.1994 17.5792 14.1466 17.4971 14.1114L17.3915 14.0762L12.4824 11.736C13.1862 11.1847 13.7111 10.4222 14.0572 9.44862C14.4032 8.47501 14.5762 7.57765 14.5762 6.75654V3.94129C14.5762 3.48381 14.4267 3.01753 14.1276 2.54246C13.8284 2.06739 13.4443 1.64217 12.9751 1.2668C12.5059 0.891435 11.9604 0.586449 11.3387 0.351845C10.717 0.117241 10.107 -6.10352e-05 9.5088 -6.10352e-05Z"/>
</svg>
