<svg width="19" height="18" viewBox="0 0 19 18" xmlns="http://www.w3.org/2000/svg">
<path d="M14.5348 16.8749H1.62279V2.81244H9.51737L10.6577 1.7226L10.6226 1.68744H1.62279C1.3187 1.68744 1.05554 1.79877 0.833327 2.02142C0.611109 2.24408 0.5 2.50775 0.5 2.81244V16.8749C0.5 17.1913 0.611109 17.4579 0.833327 17.6747C1.05554 17.8915 1.3187 17.9999 1.62279 17.9999H14.5348C14.8506 17.9999 15.1167 17.8915 15.333 17.6747C15.5494 17.4579 15.6576 17.1913 15.6576 16.8749V8.64838L14.5348 9.72064V16.8749ZM17.6049 0.720642C17.102 0.240173 16.5465 -6.10352e-05 15.9383 -6.10352e-05C15.2716 -6.10352e-05 14.6752 0.263611 14.1489 0.790955L6.44725 8.49017C6.42386 8.51361 6.4034 8.53705 6.38585 8.56049C6.36831 8.58392 6.35369 8.60736 6.34199 8.6308C6.3303 8.65424 6.32445 8.67767 6.32445 8.70111C6.14901 9.33392 5.73967 10.6992 5.0964 12.7968C5.08471 12.8554 5.07886 12.914 5.07886 12.9726C5.07886 13.0312 5.09056 13.0869 5.11395 13.1396C5.13734 13.1923 5.17243 13.2363 5.21921 13.2714C5.31277 13.3652 5.42388 13.412 5.55254 13.412C5.59932 13.412 5.6461 13.4062 5.69288 13.3945C7.22502 12.8788 8.56417 12.4511 9.71035 12.1113C9.78052 12.0878 9.84485 12.0468 9.90333 11.9882C14.8974 7.05463 17.4763 4.49994 17.64 4.32416C18.2248 3.7265 18.5114 3.11713 18.4997 2.49603C18.4763 1.86322 18.178 1.27142 17.6049 0.720642ZM16.833 3.53314C16.5172 3.86127 14.0962 6.26361 9.57 10.7402L9.21913 11.0742C8.98522 11.1445 8.62265 11.2587 8.13143 11.4169C7.64021 11.5751 7.10806 11.748 6.53497 11.9355C6.95602 10.5527 7.23087 9.62689 7.35952 9.15814C12.2249 4.29486 14.7512 1.76947 14.9383 1.58197C15.2424 1.27728 15.5757 1.12494 15.9383 1.12494C16.2424 1.12494 16.5406 1.26556 16.833 1.54681C17.1839 1.88666 17.3652 2.20892 17.3769 2.51361C17.3769 2.8183 17.1956 3.15814 16.833 3.53314Z"/>
</svg>
